g Mesh_Penlight
v -0 0.135873497 0.0132340193
v -0 0.135873497 -0.0132340286
v 0.0132340044 0.135873497 -8.16433641e-08
v -0.0132340044 0.135873497 -8.16433641e-08
v -0 -0.0412468798 0.0132340146
v 0.0132340044 0.135873497 -8.16433641e-08
v 0.0132340044 -0.0412468798 -8.63611618e-08
v -0.0132340044 -0.0412468798 -8.63611618e-08
v -0 -0.0412468798 -0.0132340332
v -0 0.135873497 -0.0132340286
v 0.0132340044 0.135873497 -8.16433641e-08
v 0.0132340044 -0.0412468798 -8.63611618e-08
vt 0.0131759644 0.280029297
vt 0.0208740234 0.287597656
vt 0.0131759644 0.287597656
vt 0.0208740234 0.280029297
vt 0.0131759644 0.194946289
vt 0.00547409058 0.280029297
vt 0.00546646118 0.194946289
vt 0.0208740234 0.194946289
vt 0.0285644531 0.194946289
vt 0.0285644531 0.280029297
vt 0.0363464355 0.280029297
vt 0.0363464355 0.194946289
vn 3.50177288e-05 0.0641119182 0.997942746
vn -3.26484405e-05 0.0641134009 -0.997942626
vn 0.997942626 0.0641129017 -3.61055099e-05
vn -0.997942626 0.0641128421 3.0338766e-05
vn -0 0 1
vn 0.997942626 0.0641129017 -3.61055099e-05
vn 1 0 -2.89780178e-06
vn -1 0 -2.89780178e-06
vn -0 0 -1
vn -3.26484405e-05 0.0641134009 -0.997942626
vn 0.997942626 0.0641129017 -3.61055099e-05
vn 1 0 -2.89780178e-06
vn 0 -1 -0
f 3/3/3 2/2/2 1/1/1
f 2/2/2 4/4/4 1/1/1
f 1/1/1 4/4/4 5/5/5
f 6/6/6 1/1/1 5/5/5
f 7/7/7 6/6/6 5/5/5
f 4/4/4 8/8/8 5/5/5
f 9/9/9 8/8/8 4/4/4
f 10/10/10 9/9/9 4/4/4
f 9/9/9 10/10/10 11/11/11
f 12/12/12 9/9/9 11/11/11
f 5/5/13 9/9/13 7/7/13
f 5/5/13 8/8/13 9/9/13
